<?xml version="1.0" encoding="UTF-8"?>
<svg id="Layer_1" xmlns="http://www.w3.org/2000/svg" version="1.1" viewBox="0 0 24 24">
  <!-- Generator: Adobe Illustrator 29.0.1, SVG Export Plug-In . SVG Version: 2.1.0 Build 192)  -->
  <defs>
    <style>
      .st0 {
        fill: #fff;
      }

      .st1 {
        fill: #213630;
      }
    </style>
  </defs>
  <path class="st0" d="M12,21.8c-1.3,0-2.5-.2-3.7-.7-1.2-.5-2.3-1.2-3.2-2.1-.9-.9-1.6-2-2.1-3.2-.5-1.2-.7-2.4-.7-3.7,0-2.6,1-5.1,2.9-6.9,1.8-1.8,4.3-2.9,6.9-2.9s5.1,1,6.9,2.9c1.8,1.8,2.9,4.3,2.9,6.9s-.2,2.5-.7,3.7c-.5,1.2-1.2,2.3-2.1,3.2-.9.9-2,1.6-3.2,2.1-1.2.5-2.4.7-3.7.7ZM12,3.8c-2.2,0-4.3.9-5.8,2.4-1.6,1.6-2.4,3.6-2.4,5.8s.2,2.2.6,3.2c.4,1,1,1.9,1.8,2.7.8.8,1.7,1.4,2.7,1.8,2,.8,4.3.8,6.3,0,1-.4,1.9-1,2.7-1.8.8-.8,1.4-1.7,1.8-2.7.4-1,.6-2.1.6-3.2,0-2.2-.9-4.3-2.4-5.8-1.6-1.6-3.6-2.4-5.8-2.4ZM12.8,15.8c-.2,0-.4,0-.5-.2-.3-.3-.3-.8,0-1.1l1.7-1.7h-5.7c-.4,0-.8-.3-.8-.8s.3-.8.8-.8h5.7l-1.7-1.7c-.3-.3-.3-.8,0-1.1s.8-.3,1.1,0l3,3c0,0,.1.2.2.2,0,0,0,.2,0,.3s0,.2,0,.3c0,0,0,.2-.2.2l-3,3c-.1.1-.3.2-.5.2Z"/>
  <circle class="st0" cx="-36.4" cy="25.5" r="4.7"/>
  <circle class="st1" cx="-46.5" cy="25.5" r="4.7"/>
</svg>
