<?xml version="1.0" encoding="UTF-8"?>
<svg id="Layer_1" data-name="Layer 1" xmlns="http://www.w3.org/2000/svg" viewBox="0 0 320 132">
  <defs>
    <style>
      .cls-1 {
        fill-rule: evenodd;
      }

      .cls-1, .cls-2 {
        fill: #fff;
        stroke-width: 0px;
      }
    </style>
  </defs>
  <g>
    <path class="cls-2" d="M58.26,118.67c-2.07,0-3.68-.64-4.86-1.92-1-1.1-1.5-2.51-1.5-4.23s.57-3.37,1.7-4.71c1.13-1.34,2.74-2.33,4.83-2.97,2.22.68,3.89,1.75,5.02,3.21,1.02,1.28,1.53,2.77,1.53,4.47,0,1.98-.65,3.53-1.96,4.65-1.13,1-2.61,1.5-4.44,1.5h-.33ZM55.75,101.73c-.65,0-1.17-.18-1.57-.54-.39-.36-.59-.85-.59-1.47,0-1.3.72-1.95,2.15-1.95.65,0,1.17.18,1.55.52.38.35.57.82.57,1.42,0,1.34-.71,2.01-2.12,2.01ZM58.23,115.04h.42c1.52,0,2.28-.83,2.28-2.49,0-1.9-.84-3.29-2.51-4.17-1.65.88-2.48,2.25-2.48,4.11,0,1.7.76,2.55,2.28,2.55ZM60.74,101.73c-.65,0-1.17-.18-1.57-.55-.39-.37-.59-.85-.59-1.45s.2-1.05.59-1.41c.39-.36.91-.54,1.57-.54s1.17.18,1.55.52c.38.35.57.82.57,1.42,0,1.34-.71,2.01-2.12,2.01Z"/>
    <path class="cls-2" d="M74.96,116.81c0,2.32-.7,4.2-2.09,5.64-1.28,1.34-2.98,2.01-5.09,2.01-1.37,0-2.71-.32-4.01-.96v-3.3c1.13.58,2.24.87,3.33.87,1.2,0,2.12-.36,2.79-1.06.66-.71.99-1.69.99-2.95v-9.69l4.08-2.01v11.46Z"/>
    <path class="cls-2" d="M85.94,118.67c-1.98,0-3.51-.58-4.6-1.74-.93-1-1.4-2.29-1.4-3.87v-11.76l4.11-1.98v13.56c0,.78.17,1.33.52,1.66.35.33.93.49,1.76.49h2.93v3.63h-3.33Z"/>
    <path class="cls-2" d="M98.92,115.04h2.93v3.63h-3.33c-1.59,0-2.9-.39-3.95-1.17-1.04.78-2.36,1.17-3.95,1.17h-3.33v-3.63h2.93c.83,0,1.41-.17,1.76-.49.35-.33.52-.88.52-1.66v-5.55l4.11-1.98v7.53c0,.78.17,1.33.52,1.66.35.33.93.49,1.76.49ZM90.41,102.72c-.65,0-1.17-.18-1.57-.54-.39-.36-.59-.85-.59-1.47,0-.58.2-1.05.59-1.41.39-.36.91-.54,1.57-.54s1.17.18,1.55.52c.38.35.57.82.57,1.42,0,1.34-.71,2.01-2.12,2.01ZM95.4,102.72c-.65,0-1.17-.18-1.57-.55-.39-.37-.59-.85-.59-1.45s.2-1.05.6-1.41c.4-.36.92-.54,1.55-.54s1.17.18,1.55.52c.38.35.57.82.57,1.42,0,1.34-.71,2.01-2.12,2.01Z"/>
    <path class="cls-2" d="M99.9,118.67v-3.63h3.46c.83,0,1.42-.17,1.78-.49s.54-.88.54-1.66v-3.96l4.11-1.98v5.94c0,.78.17,1.33.52,1.66.35.33.93.49,1.76.49h2.22c.83,0,1.41-.17,1.76-.49.35-.33.52-.88.52-1.66v-4.74l4.11-2.01v6.75c0,.78.18,1.33.54,1.66s.95.49,1.78.49h2.22c.83,0,1.41-.17,1.76-.49.35-.33.52-.88.52-1.66v-5.55l4.11-1.98v7.05c0,.96.21,1.64.64,2.04.42.4,1.14.6,2.14.6h3v3.63h-3.23c-1.83,0-3.29-.48-4.4-1.44-.98.94-2.29,1.42-3.95,1.44h-3.23c-1.61,0-2.92-.44-3.95-1.32-.94.86-2.17,1.3-3.72,1.32h-3.23c-1.61,0-2.92-.44-3.95-1.32-1.02.88-2.34,1.32-3.95,1.32h-3.88Z"/>
    <path class="cls-2" d="M135.42,118.67v-3.63h2.05c1,0,1.71-.2,2.14-.6.42-.4.64-1.08.64-2.04v-11.07l4.08-2.01v13.11c0,1.94-.64,3.49-1.92,4.65-1.17,1.06-2.74,1.59-4.7,1.59h-2.28Z"/>
    <path class="cls-2" d="M149.31,118.67v-17.34l4.11-2.01v19.34h-4.11Z"/>
    <path class="cls-2" d="M181.48,115.04h2.93v3.63h-3.33c-.74,0-1.42-.09-2.05-.27-.41,1.92-1.47,3.43-3.16,4.53-1.52.96-3.37,1.44-5.54,1.44-2.93,0-5.21-.95-6.82-2.85-1.26-1.48-1.89-3.22-1.89-5.22,0-1.58.4-2.96,1.21-4.14l3.91-.75c-.87,1.36-1.3,2.79-1.3,4.29s.47,2.75,1.4,3.69c.89.9,2.05,1.35,3.49,1.35s2.67-.35,3.51-1.05c.84-.7,1.26-1.68,1.26-2.94v-9.42l4.11-1.98v7.53c0,.78.17,1.33.52,1.66.35.33.93.49,1.76.49ZM170.1,105.57c-.65,0-1.17-.18-1.57-.54-.39-.36-.59-.85-.59-1.47,0-.58.2-1.05.59-1.41.39-.36.91-.54,1.57-.54s1.17.18,1.55.52c.38.35.57.82.57,1.42,0,1.34-.71,2.01-2.12,2.01Z"/>
    <path class="cls-2" d="M182.46,118.67v-3.63h5.25c-.67-.86-1.01-1.96-1.01-3.3,0-2.2.65-3.94,1.96-5.22,1.17-1.12,2.71-1.68,4.6-1.68s3.43.57,4.5,1.71c.96.98,1.43,2.26,1.43,3.84v2.7c-.02,1.72-.58,3.08-1.66,4.08-1.07,1-2.51,1.5-4.34,1.5h-10.73ZM195.08,110.34c0-1.32-.61-1.98-1.83-1.98-1.67,0-2.51,1.09-2.51,3.27s.8,3.42,2.41,3.42c1.28,0,1.92-.64,1.92-1.92v-2.79ZM193.22,102.69c-.65,0-1.17-.18-1.57-.54-.39-.36-.59-.85-.59-1.47,0-.58.2-1.05.59-1.41.39-.36.91-.54,1.57-.54s1.17.18,1.55.52c.38.35.57.82.57,1.42,0,1.34-.71,2.01-2.12,2.01Z"/>
    <path class="cls-2" d="M221.83,128.24c-1.87,1.12-3.97,1.68-6.29,1.68-2.57,0-4.64-.74-6.23-2.22-1.46-1.36-2.18-3.09-2.18-5.19,0-1.46.41-2.73,1.22-3.81.82-1.08,2.15-2.11,3.99-3.09-1.26-.7-2.79-2.04-4.6-4.02-.24-.26-.42-.47-.55-.63v-1.71c.98-1.34,2.22-2.41,3.73-3.21,1.51-.8,3.05-1.2,4.61-1.2s3.11.4,4.63,1.21c1.52.81,2.78,1.89,3.78,3.25v1.65c-1.35,1.48-3.01,2.79-4.99,3.93.74.1,1.41.15,2.02.15h7.08l.03,3.63h-9.42c-1.2,0-2.28-.26-3.26-.78-1.57.66-2.68,1.35-3.34,2.07-.66.72-.99,1.58-.99,2.58,0,1.14.43,2.05,1.29,2.73.86.68,2.02,1.02,3.47,1.02,2.13,0,4.13-.54,6-1.62v3.57ZM215.51,113.6c1.63-1.18,2.84-2.37,3.62-3.57-1.3-1.12-2.52-1.68-3.65-1.68s-2.27.56-3.49,1.68c.87,1.38,2.04,2.57,3.52,3.57Z"/>
    <path class="cls-2" d="M237.75,115.04h2.93v3.63h-3.33c-1.59,0-2.9-.39-3.95-1.17-1.04.78-2.36,1.17-3.95,1.17h-3.33v-3.63h2.93c.83,0,1.41-.17,1.76-.49.35-.33.52-.88.52-1.66v-5.55l4.11-1.98v7.53c0,.78.17,1.33.52,1.66.35.33.93.49,1.76.49ZM232.53,102.33c-.65,0-1.17-.18-1.57-.54s-.59-.85-.59-1.47c0-.58.2-1.05.59-1.41.39-.36.91-.54,1.57-.54s1.17.18,1.55.52c.38.35.57.82.57,1.42,0,1.34-.71,2.01-2.12,2.01Z"/>
    <path class="cls-2" d="M272.31,115.04h2.93v3.63h-3.33c-1.59,0-2.9-.39-3.95-1.17-1.04.78-2.36,1.17-3.95,1.17h-14.09c-1.59,0-2.9-.39-3.95-1.17-1.04.78-2.36,1.17-3.95,1.17h-3.33v-3.63h2.93c.83,0,1.41-.17,1.76-.49.35-.33.52-.88.52-1.66v-3.96l4.11-1.98v5.94c0,1.28.55,1.99,1.66,2.13,1.04-2.92,2.57-5.29,4.57-7.11,2.22-2.04,4.76-3.06,7.63-3.06,2.56,0,4.62.82,6.16,2.46,1.3,1.38,1.96,3.09,1.96,5.13v.63c0,1.32.76,1.98,2.28,1.98ZM263.87,115.04c.78,0,1.32-.15,1.61-.46.29-.31.44-.88.44-1.72v-.42c0-1.2-.37-2.18-1.11-2.94-.74-.76-1.7-1.14-2.87-1.14-1.7,0-3.28.6-4.74,1.8-1.47,1.2-2.63,2.83-3.47,4.89h10.14Z"/>
    <path class="cls-2" d="M278.51,110.4c0-1.8.61-3.21,1.83-4.23,1.06-.88,2.43-1.32,4.11-1.32,2.15,0,3.83.73,5.02,2.19,1.02,1.22,1.53,2.79,1.53,4.71,0,2.22-.64,3.97-1.92,5.25-1.15,1.12-2.62,1.68-4.4,1.68s-3.16-.35-4.27-1.05c-1.04.7-2.3,1.05-3.78,1.05h-3.33v-3.63h2.93c.83,0,1.41-.17,1.76-.49.35-.33.52-.88.52-1.66v-2.49ZM282.62,113.36c0,1.12.64,1.68,1.92,1.68,1.61,0,2.41-1.14,2.41-3.42s-.84-3.27-2.51-3.27c-1.22,0-1.83.66-1.83,1.98v3.03Z"/>
  </g>
  <path class="cls-2" d="M289.82,91.07v1.32H59.19c-5.47,0-10.32-2.58-13.31-6.53-1.11-1.47-1.97-3.12-2.5-4.91-.17-.57-.3-1.15-.4-1.75.57.64,1.21,1.21,1.9,1.72,0,0,.01.02.01.03.69,2.09,1.85,3.98,3.37,5.55,2.73,2.82,6.62,4.58,10.93,4.58h230.63Z"/>
  <path class="cls-1" d="M57.45,59.43c.1.04.19.1.28.15l.06-.04c-.11-.04-.23-.08-.33-.12ZM98.48,3.13c-.25-.17-.59-.17-.85,0l-10.44,6.89c-.13.62-.28,1.25-.42,1.91-2.74,11.88-8.8,29.49-22.48,42.05-.19.17-.36.33-.55.48.37.22.73.44,1.07.67,1.38.93,2.52,2.04,3.44,3.3.03,0,.05-.03.08-.04,2.75-1.31,5.33-2.79,7.27-4.34,13.06-10.41,21.19-24.25,25.06-40.74.21-.89.77-3.54,1.27-6.28.09-.48.18-.98.26-1.46l-3.71-2.44ZM70.18,21.25c-.16.65-.33,1.31-.51,1.96-.89,3.24-1.95,6.53-3.28,10.01-3.02,7.86-6.23,13.47-9,17.59-.35.53-.71,1.03-1.04,1.51,2.06.14,3.95.57,5.67,1.29.26-.23.49-.46.73-.68,1.04-.98,1.94-1.89,2.58-2.58,9.41-10.06,16.34-23.28,19.66-37.26.16-.63.3-1.26.43-1.9l-15.23,10.05ZM42.9,39.27v12.89s.01,1.04.01,1.04v3.34c.14-.13.27-.24.39-.34.87-.75,1.83-1.4,2.89-1.95.34-.18.7-.35,1.06-.49.41-1.06.82-2.14,1.2-3.25,1.89-5.36,3.41-11.23,4.49-16.24.14-.64.26-1.27.38-1.88l-10.43,6.88ZM55.32,31.06c-.03.17-.06.34-.1.52-.09.46-.18.91-.28,1.36-1.54,7.34-3.4,13.03-5.01,17.39-.37,1-.73,1.94-1.05,2.81,1.66-.54,3.45-.82,5.36-.86.42-.61.83-1.21,1.23-1.82,5.39-8.22,9.44-16.84,12.25-25.97.21-.67.4-1.34.6-2.02l-13.01,8.58Z"/>
  <path class="cls-2" d="M153.97,39.76l-22.09-14.58V6.93h-8.95v12.34l-20.73-13.69c-.08.48-.17.97-.26,1.45l20.99,13.86,1.81,1.19,5.34,3.52,1.81,1.19,20.94,13.83v7.4h1.44v-7.73c0-.21-.11-.41-.3-.53ZM130.07,23.98l-5.34-3.52v-11.89h5.34v15.41Z"/>
  <path class="cls-2" d="M42.56,58.09c.11,0,.22,0,.33,0h.02v-.37c-.13.13-.25.25-.35.38Z"/>
  <path class="cls-2" d="M57.45,59.43c.1.04.19.1.28.15l.06-.04c-.11-.04-.23-.08-.33-.12ZM42.56,58.09c.11,0,.22,0,.33,0h.02v-.37c-.13.13-.25.25-.35.38Z"/>
  <path class="cls-2" d="M69.53,72.58c-.91,3.03-2.65,5.42-5.24,7.18-2.65,1.79-5.83,2.69-9.54,2.69-3.03,0-5.75-.62-8.14-1.86-1.1-.57-2.1-1.25-2.97-2.03-.64-.56-1.23-1.19-1.74-1.87-.32-.41-.61-.84-.89-1.29-1.34-2.21-2.01-4.74-2.01-7.58s.67-5.38,2.01-7.61c.45-.76.97-1.46,1.55-2.1.11,0,.22,0,.33,0h.02v-.37c.12-.13.25-.26.38-.39.95-.91,2.06-1.7,3.31-2.35.06-.04.12-.06.19-.09.55-.29,1.12-.53,1.7-.73,1.6-.59,3.32-.92,5.17-1.02.35-.02.72-.03,1.08-.03.34,0,.69,0,1.02.03,2.02.09,3.86.47,5.54,1.12.61.23,1.19.5,1.75.81.42.22.84.48,1.23.75,1.24.84,2.29,1.85,3.15,2.99.91,1.2,1.59,2.56,2.06,4.08h-7.92c-.66-1.26-1.58-2.23-2.79-2.89-.32-.18-.65-.33-.99-.46-.11-.04-.23-.08-.33-.12-.86-.28-1.78-.42-2.77-.42-2.48,0-4.48.79-6.01,2.37s-2.3,3.71-2.3,6.36.77,4.76,2.3,6.35,3.53,2.37,6.01,2.37c1.53,0,2.9-.33,4.1-.99,1.21-.66,2.14-1.63,2.79-2.89h7.96Z"/>
  <g>
    <path class="cls-2" d="M92.52,77.36c-1.75,2.06-4.15,3.09-7.2,3.09s-5.16-.72-6.44-2.15c-1.28-1.43-1.92-3.84-1.92-7.22v-13.14h6.51v11.55c0,2.19.32,3.73.95,4.61.63.89,1.72,1.33,3.26,1.33.66,0,1.42-.16,2.26-.48.84-.32,1.35-.66,1.52-1.01v-15.99h6.62v21.94h-4.94l-.58-2.51h-.05Z"/>
    <path class="cls-2" d="M109.44,57.94l.63,1.93c.35-.68,1.02-1.26,2.02-1.76,1-.5,2.02-.75,3.07-.75,3.15,0,5.5,1.37,7.04,4.11l-5.57,2.8c-1.16-1.22-2.38-1.84-3.68-1.84-1.19,0-2.07.56-2.63,1.69v15.75h-6.51v-21.94h5.62Z"/>
    <path class="cls-2" d="M140.54,62.82h-6.83v10.87c0,1.61.58,2.42,1.73,2.42,1.05,0,2.36-.42,3.94-1.26l2.21,3.09c-2.49,1.8-5.24,2.71-8.25,2.71-4.2,0-6.3-2.13-6.3-6.38v-11.45h-3.31v-4.88h3.36v-3.91c1.75-.87,3.97-1.95,6.67-3.24v7.15h6.78v4.88Z"/>
    <path class="cls-2" d="M164.29,79.87h-5.31l-.53-2.08c-2.31,1.77-4.66,2.66-7.04,2.66-5.29,0-7.93-2.37-7.93-7.1,0-2.35,1.1-4.19,3.31-5.51,2.24-1.35,5.55-2.03,9.93-2.03h1.1v-.1c0-1.38-.32-2.34-.95-2.85-.63-.52-1.77-.77-3.42-.77-2.31,0-4.43.68-6.36,2.03-.63-1.06-1.23-2.11-1.79-3.14,2-1.42,3.74-2.38,5.23-2.88,1.49-.5,3.27-.75,5.33-.75,5.6,0,8.41,3.22,8.41,9.66v12.85ZM157.61,69.53h-.79c-2,0-3.61.32-4.83.97-1.23.64-1.84,1.5-1.84,2.56,0,2,.95,3,2.84,3,1.16,0,2.17-.31,3.05-.92.87-.61,1.4-1.38,1.58-2.32v-3.29Z"/>
    <path class="cls-2" d="M168.96,52.33c0-1.03.39-1.92,1.18-2.68.79-.76,1.72-1.14,2.81-1.14,1.16,0,2.15.37,2.97,1.11.82.74,1.23,1.64,1.23,2.71,0,1.13-.39,2.05-1.18,2.75-.79.71-1.8,1.06-3.02,1.06-1.16,0-2.11-.36-2.86-1.09-.75-.72-1.13-1.63-1.13-2.73ZM176.42,57.94v21.94h-6.67v-21.94h6.67Z"/>
    <path class="cls-2" d="M188.24,60.06c.7-.74,1.75-1.38,3.15-1.91,1.4-.53,2.73-.8,3.99-.8,3.01,0,5.19.76,6.54,2.27,1.35,1.51,2.02,3.96,2.02,7.34v12.9h-6.67v-12.66c0-3.16-1.52-4.74-4.57-4.74-.77,0-1.59.15-2.47.46-.88.31-1.47.65-1.79,1.04v15.9h-6.62v-21.94h5.62c.17.84.35,1.55.53,2.13h.26Z"/>
    <path class="cls-2" d="M229.54,49.29h5.78l12.24,30.59h-6.99c-.6-1.61-1.33-3.74-2.21-6.38h-11.93c-.49,1.45-1.24,3.58-2.26,6.38h-6.88l12.24-30.59ZM232.48,57.55c-.98,2.55-2.33,6.12-4.05,10.73h7.99c-1.65-4.45-2.96-8.02-3.94-10.73Z"/>
    <path class="cls-2" d="M255.6,57.94l.63,1.93c.35-.68,1.02-1.26,2.02-1.76,1-.5,2.02-.75,3.07-.75,3.15,0,5.5,1.37,7.04,4.11l-5.57,2.8c-1.16-1.22-2.38-1.84-3.68-1.84-1.19,0-2.07.56-2.63,1.69v15.75h-6.51v-21.94h5.62Z"/>
    <path class="cls-2" d="M286.7,62.82h-6.83v10.87c0,1.61.58,2.42,1.73,2.42,1.05,0,2.36-.42,3.94-1.26l2.21,3.09c-2.49,1.8-5.24,2.71-8.25,2.71-4.2,0-6.3-2.13-6.3-6.38v-11.45h-3.31v-4.88h3.36v-3.91c1.75-.87,3.97-1.95,6.67-3.24v7.15h6.78v4.88Z"/>
  </g>
</svg>