<?xml version="1.0" encoding="UTF-8"?>
<svg id="Layer_1" data-name="Layer 1" xmlns="http://www.w3.org/2000/svg" viewBox="0 0 300 100">
  <defs>
    <style>
      .cls-1 {
        fill: #0074b1;
      }

      .cls-1, .cls-2, .cls-3 {
        stroke-width: 0px;
      }

      .cls-2, .cls-3 {
        fill: #64c5d8;
      }

      .cls-3 {
        fill-rule: evenodd;
      }
    </style>
  </defs>
  <g>
    <path class="cls-1" d="M83.91,89.56c-1.44,0-2.57-.49-3.39-1.47-.7-.84-1.05-1.92-1.05-3.24s.39-2.58,1.18-3.61c.79-1.03,1.91-1.78,3.36-2.27,1.55.52,2.71,1.34,3.5,2.46.71.98,1.07,2.12,1.07,3.42,0,1.52-.45,2.7-1.36,3.56-.79.77-1.82,1.15-3.09,1.15h-.23ZM82.16,76.58c-.45,0-.82-.14-1.09-.41-.27-.28-.41-.65-.41-1.13,0-1,.5-1.49,1.5-1.49.45,0,.81.13,1.08.4.26.27.4.63.4,1.09,0,1.03-.49,1.54-1.48,1.54ZM83.88,86.78h.3c1.06,0,1.59-.64,1.59-1.91,0-1.45-.58-2.52-1.75-3.19-1.15.67-1.73,1.72-1.73,3.15,0,1.3.53,1.95,1.59,1.95ZM85.63,76.58c-.45,0-.82-.14-1.09-.42-.27-.28-.41-.65-.41-1.11s.14-.8.41-1.08c.27-.28.64-.41,1.09-.41s.81.13,1.08.4c.26.27.4.63.4,1.09,0,1.03-.49,1.54-1.48,1.54Z"/>
    <path class="cls-1" d="M95.54,88.13c0,1.78-.48,3.22-1.45,4.32-.89,1.03-2.08,1.54-3.54,1.54-.95,0-1.89-.25-2.79-.74v-2.53c.79.44,1.56.67,2.32.67.83,0,1.48-.27,1.94-.82.46-.54.69-1.3.69-2.26v-7.42l2.84-1.54v8.78Z"/>
    <path class="cls-1" d="M103.2,89.56c-1.38,0-2.45-.44-3.2-1.33-.65-.77-.98-1.75-.98-2.96v-9l2.86-1.52v10.38c0,.6.12,1.02.36,1.27.24.25.65.38,1.23.38h2.04v2.78h-2.32Z"/>
    <path class="cls-1" d="M112.24,86.78h2.04v2.78h-2.32c-1.11,0-2.02-.3-2.75-.9-.73.6-1.64.9-2.75.9h-2.32v-2.78h2.04c.58,0,.98-.13,1.23-.38.24-.25.36-.68.36-1.27v-4.25l2.86-1.52v5.77c0,.6.12,1.02.36,1.27.24.25.65.38,1.23.38ZM106.31,77.34c-.45,0-.82-.14-1.09-.41-.27-.28-.41-.65-.41-1.13,0-.44.14-.8.41-1.08.27-.28.64-.41,1.09-.41s.81.13,1.08.4c.26.27.4.63.4,1.09,0,1.03-.49,1.54-1.48,1.54ZM109.79,77.34c-.45,0-.82-.14-1.09-.42-.27-.28-.41-.65-.41-1.11s.14-.8.42-1.08c.28-.28.64-.41,1.08-.41s.81.13,1.08.4c.26.27.4.63.4,1.09,0,1.03-.49,1.54-1.48,1.54Z"/>
    <path class="cls-1" d="M112.92,89.56v-2.78h2.41c.58,0,.99-.13,1.24-.38s.37-.68.37-1.27v-3.03l2.86-1.52v4.55c0,.6.12,1.02.36,1.27.24.25.65.38,1.23.38h1.54c.58,0,.98-.13,1.23-.38.24-.25.36-.68.36-1.27v-3.63l2.86-1.54v5.17c0,.6.13,1.02.37,1.27s.66.38,1.24.38h1.55c.58,0,.98-.13,1.23-.38.24-.25.36-.68.36-1.27v-4.25l2.86-1.52v5.4c0,.74.15,1.26.44,1.56.3.31.79.46,1.49.46h2.09v2.78h-2.25c-1.27,0-2.29-.37-3.07-1.1-.68.72-1.6,1.09-2.75,1.1h-2.25c-1.12,0-2.04-.34-2.75-1.01-.65.66-1.51,1-2.59,1.01h-2.25c-1.12,0-2.04-.34-2.75-1.01-.71.67-1.63,1.01-2.75,1.01h-2.7Z"/>
    <path class="cls-1" d="M137.67,89.56v-2.78h1.43c.7,0,1.19-.15,1.49-.46.3-.31.44-.83.44-1.56v-8.48l2.84-1.54v10.04c0,1.49-.45,2.67-1.34,3.56-.82.81-1.91,1.22-3.27,1.22h-1.59Z"/>
    <path class="cls-1" d="M147.35,89.56v-13.28l2.86-1.54v14.82h-2.86Z"/>
    <path class="cls-1" d="M169.76,86.78h2.04v2.78h-2.32c-.52,0-.99-.07-1.43-.21-.29,1.47-1.02,2.63-2.2,3.47-1.06.74-2.35,1.1-3.86,1.1-2.04,0-3.63-.73-4.75-2.18-.88-1.13-1.32-2.47-1.32-4,0-1.21.28-2.27.84-3.17l2.73-.57c-.61,1.04-.91,2.14-.91,3.28s.33,2.11.98,2.83c.62.69,1.43,1.03,2.43,1.03s1.86-.27,2.44-.8c.58-.54.87-1.29.87-2.25v-7.21l2.86-1.52v5.77c0,.6.12,1.02.36,1.27.24.25.65.38,1.23.38ZM161.83,79.52c-.45,0-.82-.14-1.09-.41-.27-.28-.41-.65-.41-1.13,0-.44.14-.8.41-1.08.27-.28.64-.41,1.09-.41s.81.13,1.08.4c.26.27.4.63.4,1.09,0,1.03-.49,1.54-1.48,1.54Z"/>
    <path class="cls-1" d="M170.44,89.56v-2.78h3.66c-.47-.66-.7-1.5-.7-2.53,0-1.68.45-3.02,1.36-4,.82-.86,1.89-1.29,3.2-1.29s2.39.44,3.14,1.31c.67.75,1,1.73,1,2.94v2.07c-.02,1.32-.4,2.36-1.16,3.12-.74.77-1.75,1.15-3.02,1.15h-7.48ZM179.24,83.17c0-1.01-.42-1.52-1.27-1.52-1.17,0-1.75.83-1.75,2.5s.56,2.62,1.68,2.62c.89,0,1.34-.49,1.34-1.47v-2.14ZM177.94,77.32c-.45,0-.82-.14-1.09-.41-.27-.28-.41-.65-.41-1.13,0-.44.14-.8.41-1.08.27-.28.64-.41,1.09-.41s.81.13,1.08.4c.26.27.4.63.4,1.09,0,1.03-.49,1.54-1.48,1.54Z"/>
    <path class="cls-1" d="M197.88,96.89c-1.3.86-2.76,1.29-4.39,1.29-1.79,0-3.23-.57-4.34-1.7-1.02-1.04-1.52-2.37-1.52-3.97,0-1.12.28-2.09.85-2.92.57-.83,1.5-1.62,2.78-2.37-.88-.54-1.95-1.56-3.2-3.08-.17-.2-.3-.36-.39-.48v-1.31c.68-1.03,1.55-1.85,2.6-2.46,1.05-.61,2.12-.92,3.22-.92s2.17.31,3.23.93c1.06.62,1.94,1.45,2.64,2.49v1.26c-.94,1.13-2.1,2.14-3.48,3.01.51.08.98.11,1.41.11h4.93l.02,2.78h-6.57c-.83,0-1.59-.2-2.27-.6-1.09.51-1.87,1.03-2.33,1.59-.46.55-.69,1.21-.69,1.98,0,.87.3,1.57.9,2.09.6.52,1.4.78,2.42.78,1.48,0,2.88-.41,4.18-1.24v2.73ZM193.47,85.68c1.14-.9,1.98-1.81,2.52-2.73-.91-.86-1.76-1.29-2.54-1.29s-1.58.43-2.43,1.29c.61,1.06,1.42,1.97,2.45,2.73Z"/>
    <path class="cls-1" d="M208.97,86.78h2.04v2.78h-2.32c-1.11,0-2.02-.3-2.75-.9-.73.6-1.64.9-2.75.9h-2.32v-2.78h2.04c.58,0,.98-.13,1.23-.38.24-.25.36-.68.36-1.27v-4.25l2.86-1.52v5.77c0,.6.12,1.02.36,1.27.24.25.65.38,1.23.38ZM205.33,77.04c-.45,0-.82-.14-1.09-.41s-.41-.65-.41-1.13c0-.44.14-.8.41-1.08.27-.28.64-.41,1.09-.41s.81.13,1.08.4c.26.27.4.63.4,1.09,0,1.03-.49,1.54-1.48,1.54Z"/>
    <path class="cls-1" d="M233.05,86.78h2.04v2.78h-2.32c-1.11,0-2.02-.3-2.75-.9-.73.6-1.64.9-2.75.9h-9.82c-1.11,0-2.02-.3-2.75-.9-.73.6-1.64.9-2.75.9h-2.32v-2.78h2.04c.58,0,.98-.13,1.23-.38.24-.25.36-.68.36-1.27v-3.03l2.86-1.52v4.55c0,.98.39,1.52,1.16,1.63.73-2.24,1.79-4.05,3.18-5.44,1.54-1.56,3.32-2.34,5.32-2.34,1.79,0,3.22.63,4.29,1.88.91,1.06,1.36,2.37,1.36,3.93v.48c0,1.01.53,1.52,1.59,1.52ZM227.17,86.78c.55,0,.92-.12,1.12-.36.2-.24.31-.68.31-1.32v-.32c0-.92-.26-1.67-.77-2.25-.52-.58-1.18-.87-2-.87-1.18,0-2.28.46-3.31,1.38-1.02.92-1.83,2.17-2.42,3.74h7.07Z"/>
    <path class="cls-1" d="M237.37,83.22c0-1.38.42-2.46,1.27-3.24.74-.67,1.7-1.01,2.86-1.01,1.5,0,2.67.56,3.5,1.68.71.93,1.07,2.14,1.07,3.61,0,1.7-.45,3.04-1.34,4.02-.8.86-1.83,1.29-3.07,1.29s-2.2-.27-2.98-.8c-.73.54-1.61.8-2.64.8h-2.32v-2.78h2.04c.58,0,.98-.13,1.23-.38.24-.25.36-.68.36-1.27v-1.91ZM240.23,85.49c0,.86.45,1.29,1.34,1.29,1.12,0,1.68-.87,1.68-2.62s-.58-2.5-1.75-2.5c-.85,0-1.27.51-1.27,1.52v2.32Z"/>
  </g>
  <path class="cls-1" d="M245.25,68.42v1.01H84.56c-3.81,0-7.19-1.97-9.28-5-.77-1.12-1.37-2.39-1.74-3.76-.12-.44-.21-.88-.28-1.34.4.49.84.93,1.32,1.32,0,0,0,.01,0,.02.48,1.6,1.29,3.05,2.35,4.25,1.9,2.16,4.61,3.51,7.62,3.51h160.7Z"/>
  <path class="cls-3" d="M83.34,44.19c.07.03.13.08.19.12l.04-.03c-.08-.03-.16-.06-.23-.09ZM111.93,1.06c-.17-.13-.41-.13-.59,0l-7.27,5.28c-.09.47-.19.96-.29,1.46-1.91,9.1-6.13,22.58-15.67,32.2-.13.13-.25.25-.38.37.26.16.51.34.75.51.96.71,1.76,1.56,2.4,2.53.02,0,.03-.02.05-.03,1.91-1,3.72-2.14,5.07-3.33,9.1-7.97,14.76-18.57,17.46-31.2.14-.68.53-2.71.88-4.81.06-.37.12-.75.18-1.12l-2.59-1.87ZM92.21,14.94c-.11.5-.23,1-.36,1.5-.62,2.48-1.36,5-2.28,7.67-2.1,6.02-4.34,10.32-6.27,13.47-.25.4-.49.79-.73,1.16,1.43.11,2.75.44,3.95.99.18-.18.34-.35.51-.52.73-.75,1.35-1.45,1.8-1.97,6.55-7.71,11.39-17.83,13.7-28.54.11-.48.21-.97.3-1.45l-10.61,7.7ZM73.2,28.74v9.87s0,.8,0,.8v2.56c.1-.1.18-.19.27-.26.6-.58,1.28-1.07,2.02-1.49.24-.14.49-.27.74-.38.29-.81.57-1.64.84-2.49,1.32-4.11,2.38-8.6,3.13-12.44.1-.49.18-.97.27-1.44l-7.27,5.27ZM81.86,22.45c-.02.13-.04.26-.07.4-.06.35-.12.7-.19,1.04-1.07,5.62-2.37,9.98-3.49,13.32-.26.77-.51,1.49-.73,2.15,1.16-.41,2.41-.63,3.74-.66.29-.47.58-.93.86-1.39,3.76-6.29,6.58-12.9,8.54-19.89.14-.51.28-1.03.42-1.55l-9.06,6.58Z"/>
  <path class="cls-1" d="M150.59,29.12l-15.39-11.17V3.97h-6.24v9.45l-14.45-10.49c-.06.37-.12.74-.18,1.11l14.63,10.62,1.26.91,3.72,2.7,1.26.91,14.59,10.59v5.67h1.01v-5.92c0-.16-.08-.31-.21-.41ZM133.95,17.03l-3.72-2.7V5.23h3.72v11.8Z"/>
  <path class="cls-1" d="M72.97,43.16c.08,0,.15,0,.23,0h.01v-.28c-.09.1-.17.19-.25.29Z"/>
  <path class="cls-1" d="M83.34,44.19c.07.03.13.08.19.12l.04-.03c-.08-.03-.16-.06-.23-.09ZM72.97,43.16c.08,0,.15,0,.23,0h.01v-.28c-.09.1-.17.19-.25.29Z"/>
  <path class="cls-2" d="M91.76,54.25c-.63,2.32-1.84,4.15-3.65,5.5-1.84,1.37-4.06,2.06-6.65,2.06-2.11,0-4-.47-5.67-1.43-.77-.44-1.46-.96-2.07-1.56-.45-.43-.86-.91-1.21-1.43-.23-.32-.43-.64-.62-.99-.93-1.69-1.4-3.63-1.4-5.81s.47-4.12,1.4-5.83c.32-.58.68-1.12,1.08-1.61.08,0,.15,0,.23,0h.01v-.28c.08-.1.17-.2.27-.29.66-.7,1.43-1.3,2.3-1.8.04-.03.08-.05.13-.07.38-.22.78-.4,1.19-.56,1.12-.45,2.31-.71,3.6-.78.25-.01.5-.02.75-.02.24,0,.48,0,.71.02,1.41.07,2.69.36,3.86.86.43.18.83.38,1.22.62.29.17.58.37.86.58.86.64,1.6,1.42,2.19,2.29.63.92,1.11,1.96,1.43,3.13h-5.52c-.46-.97-1.1-1.71-1.95-2.21-.22-.14-.45-.25-.69-.35-.08-.03-.16-.06-.23-.09-.6-.21-1.24-.32-1.93-.32-1.73,0-3.12.6-4.19,1.82-1.07,1.21-1.6,2.84-1.6,4.87s.53,3.65,1.6,4.86c1.07,1.21,2.46,1.82,4.19,1.82,1.07,0,2.02-.25,2.86-.76.84-.51,1.49-1.25,1.95-2.21h5.55Z"/>
  <g>
    <path class="cls-1" d="M107.78,57.92c-1.22,1.58-2.89,2.37-5.02,2.37s-3.59-.55-4.48-1.65c-.89-1.1-1.34-2.94-1.34-5.53v-10.07h4.54v8.85c0,1.68.22,2.86.66,3.53.44.68,1.2,1.02,2.27,1.02.46,0,.99-.12,1.57-.37.59-.25.94-.51,1.06-.78v-12.25h4.61v16.8h-3.44l-.4-1.92h-.04Z"/>
    <path class="cls-1" d="M119.56,43.04l.44,1.48c.24-.52.71-.97,1.41-1.35.7-.38,1.41-.57,2.14-.57,2.2,0,3.83,1.05,4.91,3.15l-3.88,2.15c-.81-.94-1.66-1.41-2.56-1.41-.83,0-1.44.43-1.83,1.3v12.07h-4.54v-16.8h3.92Z"/>
    <path class="cls-1" d="M141.24,46.78h-4.76v8.33c0,1.23.4,1.85,1.21,1.85.73,0,1.65-.32,2.75-.96l1.54,2.37c-1.73,1.38-3.65,2.07-5.75,2.07-2.93,0-4.39-1.63-4.39-4.89v-8.77h-2.31v-3.74h2.34v-3c1.22-.67,2.77-1.49,4.65-2.48v5.48h4.72v3.74Z"/>
    <path class="cls-1" d="M157.78,59.84h-3.7l-.37-1.59c-1.61,1.36-3.25,2.04-4.91,2.04-3.69,0-5.53-1.81-5.53-5.44,0-1.8.77-3.21,2.31-4.22,1.56-1.04,3.87-1.55,6.92-1.55h.77v-.07c0-1.06-.22-1.79-.66-2.18-.44-.39-1.23-.59-2.38-.59-1.61,0-3.09.52-4.43,1.55-.44-.81-.85-1.62-1.24-2.41,1.39-1.09,2.6-1.82,3.64-2.2,1.04-.38,2.28-.57,3.72-.57,3.9,0,5.86,2.47,5.86,7.4v9.84ZM153.13,51.92h-.55c-1.39,0-2.51.25-3.37.74-.85.49-1.28,1.15-1.28,1.96,0,1.53.66,2.29,1.98,2.29.81,0,1.51-.23,2.12-.7.61-.47.98-1.06,1.1-1.78v-2.52Z"/>
    <path class="cls-1" d="M161.04,38.75c0-.79.27-1.47.82-2.05.55-.58,1.2-.87,1.96-.87.81,0,1.49.28,2.07.85.57.57.86,1.26.86,2.07,0,.86-.27,1.57-.82,2.11-.55.54-1.25.81-2.11.81-.81,0-1.47-.28-2-.83-.53-.56-.79-1.25-.79-2.09ZM166.24,43.04v16.8h-4.65v-16.8h4.65Z"/>
    <path class="cls-1" d="M174.48,44.67c.49-.57,1.22-1.05,2.2-1.46.98-.41,1.9-.61,2.78-.61,2.1,0,3.62.58,4.56,1.74.94,1.16,1.41,3.03,1.41,5.63v9.88h-4.65v-9.7c0-2.42-1.06-3.63-3.18-3.63-.54,0-1.11.12-1.72.35-.61.23-1.02.5-1.24.8v12.18h-4.61v-16.8h3.92c.12.64.24,1.18.37,1.63h.18Z"/>
    <path class="cls-1" d="M203.25,36.41h4.03l8.53,23.43h-4.87c-.42-1.23-.93-2.86-1.54-4.89h-8.31c-.34,1.11-.87,2.74-1.57,4.89h-4.8l8.53-23.43ZM205.3,42.74c-.68,1.95-1.62,4.69-2.82,8.22h5.56c-1.15-3.4-2.06-6.14-2.75-8.22Z"/>
    <path class="cls-1" d="M221.41,43.04l.44,1.48c.24-.52.71-.97,1.41-1.35.7-.38,1.41-.57,2.14-.57,2.2,0,3.83,1.05,4.91,3.15l-3.88,2.15c-.81-.94-1.66-1.41-2.56-1.41-.83,0-1.44.43-1.83,1.3v12.07h-4.54v-16.8h3.92Z"/>
    <path class="cls-1" d="M243.08,46.78h-4.76v8.33c0,1.23.4,1.85,1.21,1.85.73,0,1.65-.32,2.75-.96l1.54,2.37c-1.73,1.38-3.65,2.07-5.75,2.07-2.93,0-4.39-1.63-4.39-4.89v-8.77h-2.31v-3.74h2.34v-3c1.22-.67,2.77-1.49,4.65-2.48v5.48h4.72v3.74Z"/>
  </g>
</svg>